<svg width="100" height="115" xmlns="http://www.w3.org/2000/svg">
  <g fill="none" fill-rule="evenodd">
    <path d="M73 53c0 .5-7.4 1-16.5 1S40 53.5 40 53c0-.6 7.4-1 16.5-1s16.5.4 16.5 1" fill="#0E960F" opacity=".5"/>
    <path d="M49.4 48.1c-2.3 1.4-5.5.1-.9-3.7 4.6-3.8 2.6-9.3 2.6-9.3-2.8-4.2 1-2.4 2 1 2.1 7.3-1.5 10.6-3.7 12M37.8 27.6c-1 0-1-.2-1.2-.7-.2-.6-.8-1.6-1.7-2.7-.8-1.1 1-1.5 1-1.5l.6-.1c1-.2 1.4.4 1.8 1.1.4 1 .4 2 .5 2.5.2.9-.2 1.2-1 1.4M35.2 36c-.6.8-1.7 1-2.3.5-.6-.6-.6-1.6 0-2.4.8-.8 1.8-1 2.4-.5.6.6.6 1.6 0 2.4m43.2-23C76.3 9 72 2 67.2 1 62.5.3 61 9 61 9l-6.4 23a16 16 0 0 0-10-4.9c0-3.6 1.7-7.5.3-7.8-2.3-.3-4.6-.1-6.6.2-.6-2.2-3.4-7.8-11.5-8-2.4-.1-3-.3-3 1.2 0 1.2 1 1.1 3.2 1.1 2 0 6.3.2 8.7 6.4-2.6.8-4.3 1.7-4.3 1.7-1.5.6-.8 2.3 1.5 4.7.6.6 1 1.5 1.3 2.6-1.2.6-7.1 4-7.1 11.1 0 7.9 6.3 13.3 16.7 13.3 10.4 0 14.3-10 14.3-10s7.4-22.4 8.4-26.4 5 2.7 7.4 5.4c2.4 2.6 1.4 5-.5 6.3-1.9 1.4-5.4 5.7-4.8 10.5.6 5 2.8 0 3.2-1.6.3-1.6 6.4-6.1 10.5-9.2 4.1-3.2-1.5-11.7-3.8-15.7" fill="#0E960F"/>
    <path d="M20.9 12.3c.4 0 .7-.3.7-.6.1-.5-.2-.8-.6-.9l-4.1-.6h-.1c-.4 0-.7.3-.8.7 0 .4.2.8.6.8l4.2.6h.1M23.5 8.5L21.1 5a.7.7 0 0 0-.6-.3.8.8 0 0 0-.6 1.1l2.4 3.4a.8.8 0 0 0 1 .2c.4-.2.5-.7.2-1M29 15.9a.8.8 0 0 0-.7-.3.8.8 0 0 0-.6 1.2L30 20a.8.8 0 0 0 1 .2c.4-.2.5-.7.3-1l-2.5-3.4zM27.6 3.9a.8.8 0 0 0-1.5-.2l-.6 4.1V8a.8.8 0 0 0 1.4 0l.7-4v-.1M24.7 16.4c-.4 0-.8.2-.8.7l-.6 4v.2c0 .4.2.7.6.7.4 0 .8-.2.8-.6l.7-4.1v-.1c0-.4-.3-.7-.7-.8M33.8 6.4a.8.8 0 0 0-1 0l-3.3 2.5a.8.8 0 0 0-.1 1c.2.4.7.4 1 .2l3.3-2.6a.8.8 0 0 0 .1-1M21.2 14.5L18 17.1a.8.8 0 0 0-.1 1c.2.4.7.4 1 .2l3.3-2.6a.7.7 0 0 0 .1-1 .8.8 0 0 0-1-.2" fill="#0E960F"/>
    <g fill="#0E960F">
      <path d="M61.1 81.5c0 2.4-1.6 4.5-3 4.5-1.6 0-2.4-2-2.4-4.5S57 77 58.4 77c1.5 0 2.8 1.5 2.7 4.5M58 64c-5.6 0-9.7 6.2-9.7 13.8 0 7.6 3.7 14 9.3 14 5.5 0 11.3-6.2 11.3-13.8 0-7.6-5.4-14-11-14M37.3 77c1.5 0 2.7 2 2.7 4.5 0 2.4-.8 4.5-2.3 4.5-1.5 0-3-2-3.1-4.5-.1-3 1.2-4.5 2.7-4.5m-10.4 1c0 7.6 5.8 13.8 11.4 13.8 5.5 0 9.2-6.4 9.2-14S43.4 64 37.8 64C32.3 64 27 70.4 27 78"/>
      <path d="M68.9 66.2l8.5.7 5 8.4s2.6-4.5 3-7l7.4.8s4.2 9.6-4 21h-5.1s2.1-3 2.4-6l-7.4 6.6s-2.4-5.5-3.4-6.5c0 0-1.4 5.7-1.7 6.3h-5s3-14.3.3-24.3M18.9 87c-.8-.6-1.4-3.2-1.4-3.2 2.3-.8 3.6 1 3.6 1.9 0 .8-1.5 2-2.2 1.4m-2-6.8c-.4-.9 0-4.2 0-4.2 1.8 0 3.2.9 3.1 2.4 0 1.6-2.5 2.7-3 1.8m6.3 2s3.2-2 2.8-7.2c-.4-5.2-1.5-11.3-18-6 0 0-4.3 9.8 4.2 21 0 0 13.6 2.8 13.7-2.5.2-3.8-2.7-5.2-2.7-5.2"/>
    </g>
    <path d="M30.3 106.7v4.3h-1v-4.1c0-1.2-.6-1.9-1.6-1.9s-1.8.8-1.8 1.8v4.2h-1v-4.1c0-1.2-.7-1.9-1.7-1.9s-1.7.8-1.7 1.9v4.1h-1.1v-6.8h1v.7c.5-.6 1.2-.9 2-.9 1 0 1.7.5 2.1 1.2.5-.7 1.4-1.2 2.4-1.2 1.5 0 2.4 1 2.4 2.7zm8.2 1.6v-4.1h1.1v4.2c0 1 .8 1.8 1.8 1.8s1.7-.8 1.7-1.8v-4.2h1v4c0 1.8-1.1 3-2.7 3a2.7 2.7 0 0 1-2.9-3zm13.3 1.5l.7-.7c.7.7 1.2 1 2 1 .7 0 1.3-.3 1.3-1 0-.5-.4-.7-1.2-1l-.7-.3c-1.1-.4-1.7-1-1.7-1.9 0-1.2 1-1.9 2.3-1.9 1 0 1.8.4 2.3 1.1l-.6.7c-.5-.5-1.1-.8-1.7-.8-.7 0-1.2.3-1.2.9 0 .4.3.6 1.1 1l.7.2c1.2.6 1.8 1.1 1.8 2 0 .7-.3 1.2-.7 1.5-.5.4-1 .6-1.7.6-1.1 0-2-.6-2.7-1.4zm13 1.2v-6.8H66v6.8h-1zm-.2-9.4c0-.5.3-.8.8-.8.4 0 .8.3.8.8 0 .4-.4.8-.8.8a.8.8 0 0 1-.8-.8zm9.2 6c0-2 1.6-3.6 3.6-3.6 1.1 0 2.1.6 2.8 1.5l-.8.6a2.4 2.4 0 0 0-2-1 2.5 2.5 0 0 0-2.5 2.5c0 1.4 1 2.6 2.5 2.6.8 0 1.4-.4 2-1.1l.8.6c-.7.9-1.7 1.5-2.8 1.5-2 0-3.6-1.6-3.6-3.6z" fill="#FFF" fill-rule="nonzero"/>
  </g>
</svg>
